<mxfile host="app.diagrams.net" modified="2020-09-20T01:47:37.277Z" agent="5.0 (Windows NT 10.0; Win64; x64) AppleWebKit/537.36 (KHTML, like Gecko) Chrome/85.0.4183.102 Safari/537.36 Edg/85.0.564.51" etag="UZaEK0x3RoKFejUBp2ap" version="13.7.3" type="github">
  <diagram id="GMrwMPrH-1NVi4uU-I0m" name="Page-1">
    <mxGraphModel dx="1422" dy="762" grid="1" gridSize="10" guides="1" tooltips="1" connect="1" arrows="1" fold="1" page="1" pageScale="1" pageWidth="850" pageHeight="1100" math="0" shadow="0">
      <root>
        <mxCell id="0" />
        <mxCell id="1" parent="0" />
        <mxCell id="P4wCreTXdjl9jV78y_dl-3" style="edgeStyle=orthogonalEdgeStyle;rounded=0;orthogonalLoop=1;jettySize=auto;html=1;entryX=0.5;entryY=0;entryDx=0;entryDy=0;" edge="1" parent="1" source="P4wCreTXdjl9jV78y_dl-1" target="P4wCreTXdjl9jV78y_dl-2">
          <mxGeometry relative="1" as="geometry" />
        </mxCell>
        <mxCell id="P4wCreTXdjl9jV78y_dl-1" value="Start" style="ellipse;whiteSpace=wrap;html=1;" vertex="1" parent="1">
          <mxGeometry x="350" width="120" height="80" as="geometry" />
        </mxCell>
        <mxCell id="P4wCreTXdjl9jV78y_dl-5" value="" style="edgeStyle=orthogonalEdgeStyle;rounded=0;orthogonalLoop=1;jettySize=auto;html=1;" edge="1" parent="1" source="P4wCreTXdjl9jV78y_dl-2" target="P4wCreTXdjl9jV78y_dl-4">
          <mxGeometry relative="1" as="geometry" />
        </mxCell>
        <mxCell id="P4wCreTXdjl9jV78y_dl-2" value="Enter Starting balance" style="shape=parallelogram;perimeter=parallelogramPerimeter;whiteSpace=wrap;html=1;fixedSize=1;" vertex="1" parent="1">
          <mxGeometry x="350" y="150" width="120" height="60" as="geometry" />
        </mxCell>
        <mxCell id="P4wCreTXdjl9jV78y_dl-6" value="No" style="edgeStyle=orthogonalEdgeStyle;rounded=0;orthogonalLoop=1;jettySize=auto;html=1;" edge="1" parent="1" source="P4wCreTXdjl9jV78y_dl-4" target="P4wCreTXdjl9jV78y_dl-2">
          <mxGeometry relative="1" as="geometry">
            <mxPoint x="230" y="190" as="targetPoint" />
            <Array as="points">
              <mxPoint x="200" y="315" />
              <mxPoint x="200" y="190" />
            </Array>
          </mxGeometry>
        </mxCell>
        <mxCell id="P4wCreTXdjl9jV78y_dl-9" value="Yes" style="edgeStyle=orthogonalEdgeStyle;rounded=0;orthogonalLoop=1;jettySize=auto;html=1;exitX=0.5;exitY=1;exitDx=0;exitDy=0;entryX=0.5;entryY=0;entryDx=0;entryDy=0;" edge="1" parent="1" source="P4wCreTXdjl9jV78y_dl-4" target="P4wCreTXdjl9jV78y_dl-8">
          <mxGeometry relative="1" as="geometry" />
        </mxCell>
        <mxCell id="P4wCreTXdjl9jV78y_dl-4" value="Is it a whole number or decimal?" style="rhombus;whiteSpace=wrap;html=1;" vertex="1" parent="1">
          <mxGeometry x="290" y="270" width="240" height="90" as="geometry" />
        </mxCell>
        <mxCell id="P4wCreTXdjl9jV78y_dl-11" style="edgeStyle=orthogonalEdgeStyle;rounded=0;orthogonalLoop=1;jettySize=auto;html=1;entryX=0.5;entryY=0;entryDx=0;entryDy=0;" edge="1" parent="1" source="P4wCreTXdjl9jV78y_dl-8" target="P4wCreTXdjl9jV78y_dl-10">
          <mxGeometry relative="1" as="geometry" />
        </mxCell>
        <mxCell id="P4wCreTXdjl9jV78y_dl-8" value="Enter yearly contribution&amp;nbsp;" style="shape=parallelogram;perimeter=parallelogramPerimeter;whiteSpace=wrap;html=1;fixedSize=1;" vertex="1" parent="1">
          <mxGeometry x="350" y="420" width="120" height="60" as="geometry" />
        </mxCell>
        <mxCell id="P4wCreTXdjl9jV78y_dl-12" value="No" style="edgeStyle=orthogonalEdgeStyle;rounded=0;orthogonalLoop=1;jettySize=auto;html=1;" edge="1" parent="1" source="P4wCreTXdjl9jV78y_dl-10">
          <mxGeometry relative="1" as="geometry">
            <mxPoint x="360" y="440" as="targetPoint" />
            <Array as="points">
              <mxPoint x="240" y="580" />
              <mxPoint x="240" y="440" />
              <mxPoint x="357" y="440" />
            </Array>
          </mxGeometry>
        </mxCell>
        <mxCell id="P4wCreTXdjl9jV78y_dl-24" value="Yes" style="edgeStyle=orthogonalEdgeStyle;rounded=0;orthogonalLoop=1;jettySize=auto;html=1;entryX=0.5;entryY=0;entryDx=0;entryDy=0;" edge="1" parent="1" source="P4wCreTXdjl9jV78y_dl-10" target="P4wCreTXdjl9jV78y_dl-13">
          <mxGeometry relative="1" as="geometry" />
        </mxCell>
        <mxCell id="P4wCreTXdjl9jV78y_dl-10" value="Is it a whole number or decimal?" style="rhombus;whiteSpace=wrap;html=1;" vertex="1" parent="1">
          <mxGeometry x="295" y="550" width="230" height="80" as="geometry" />
        </mxCell>
        <mxCell id="P4wCreTXdjl9jV78y_dl-22" style="edgeStyle=orthogonalEdgeStyle;rounded=0;orthogonalLoop=1;jettySize=auto;html=1;entryX=0.5;entryY=0;entryDx=0;entryDy=0;" edge="1" parent="1" source="P4wCreTXdjl9jV78y_dl-13" target="P4wCreTXdjl9jV78y_dl-15">
          <mxGeometry relative="1" as="geometry" />
        </mxCell>
        <mxCell id="P4wCreTXdjl9jV78y_dl-13" value="Enter average return on Investment" style="shape=parallelogram;perimeter=parallelogramPerimeter;whiteSpace=wrap;html=1;fixedSize=1;" vertex="1" parent="1">
          <mxGeometry x="325" y="690" width="170" height="60" as="geometry" />
        </mxCell>
        <mxCell id="P4wCreTXdjl9jV78y_dl-17" value="No" style="edgeStyle=orthogonalEdgeStyle;rounded=0;orthogonalLoop=1;jettySize=auto;html=1;" edge="1" parent="1" source="P4wCreTXdjl9jV78y_dl-15" target="P4wCreTXdjl9jV78y_dl-13">
          <mxGeometry relative="1" as="geometry">
            <mxPoint x="250" y="720" as="targetPoint" />
            <Array as="points">
              <mxPoint x="240" y="860" />
              <mxPoint x="240" y="720" />
            </Array>
          </mxGeometry>
        </mxCell>
        <mxCell id="P4wCreTXdjl9jV78y_dl-19" value="Yes" style="edgeStyle=orthogonalEdgeStyle;rounded=0;orthogonalLoop=1;jettySize=auto;html=1;entryX=0.5;entryY=0;entryDx=0;entryDy=0;" edge="1" parent="1" source="P4wCreTXdjl9jV78y_dl-15" target="P4wCreTXdjl9jV78y_dl-18">
          <mxGeometry relative="1" as="geometry" />
        </mxCell>
        <mxCell id="P4wCreTXdjl9jV78y_dl-15" value="Is it a whole number or decimal?" style="rhombus;whiteSpace=wrap;html=1;" vertex="1" parent="1">
          <mxGeometry x="295" y="820" width="230" height="80" as="geometry" />
        </mxCell>
        <mxCell id="P4wCreTXdjl9jV78y_dl-21" style="edgeStyle=orthogonalEdgeStyle;rounded=0;orthogonalLoop=1;jettySize=auto;html=1;entryX=0.5;entryY=0;entryDx=0;entryDy=0;" edge="1" parent="1" source="P4wCreTXdjl9jV78y_dl-18" target="P4wCreTXdjl9jV78y_dl-20">
          <mxGeometry relative="1" as="geometry" />
        </mxCell>
        <mxCell id="P4wCreTXdjl9jV78y_dl-18" value="Enter a number of years for the report." style="shape=parallelogram;perimeter=parallelogramPerimeter;whiteSpace=wrap;html=1;fixedSize=1;" vertex="1" parent="1">
          <mxGeometry x="295" y="970" width="230" height="60" as="geometry" />
        </mxCell>
        <mxCell id="P4wCreTXdjl9jV78y_dl-23" value="No" style="edgeStyle=orthogonalEdgeStyle;rounded=0;orthogonalLoop=1;jettySize=auto;html=1;entryX=0.017;entryY=0.617;entryDx=0;entryDy=0;entryPerimeter=0;" edge="1" parent="1" source="P4wCreTXdjl9jV78y_dl-20" target="P4wCreTXdjl9jV78y_dl-18">
          <mxGeometry relative="1" as="geometry">
            <mxPoint x="210" y="1010" as="targetPoint" />
            <Array as="points">
              <mxPoint x="190" y="1170" />
              <mxPoint x="190" y="1010" />
              <mxPoint x="299" y="1010" />
            </Array>
          </mxGeometry>
        </mxCell>
        <mxCell id="P4wCreTXdjl9jV78y_dl-27" style="edgeStyle=orthogonalEdgeStyle;rounded=0;orthogonalLoop=1;jettySize=auto;html=1;" edge="1" parent="1" source="P4wCreTXdjl9jV78y_dl-20" target="P4wCreTXdjl9jV78y_dl-25">
          <mxGeometry relative="1" as="geometry">
            <mxPoint x="410" y="1300" as="targetPoint" />
          </mxGeometry>
        </mxCell>
        <mxCell id="P4wCreTXdjl9jV78y_dl-20" value="Is it a whole number?" style="rhombus;whiteSpace=wrap;html=1;" vertex="1" parent="1">
          <mxGeometry x="325" y="1130" width="170" height="80" as="geometry" />
        </mxCell>
        <mxCell id="P4wCreTXdjl9jV78y_dl-30" style="edgeStyle=orthogonalEdgeStyle;rounded=0;orthogonalLoop=1;jettySize=auto;html=1;entryX=0.5;entryY=0;entryDx=0;entryDy=0;" edge="1" parent="1" source="P4wCreTXdjl9jV78y_dl-25" target="P4wCreTXdjl9jV78y_dl-29">
          <mxGeometry relative="1" as="geometry" />
        </mxCell>
        <mxCell id="P4wCreTXdjl9jV78y_dl-25" value="Display years with Year 0: as the starting balance.&lt;br&gt;Then add the contribution amount &amp;amp; percentage amount to the Starting balance to calculate the years until desired amount.&lt;br&gt;The Staring balance sets to the ending balance as the years go on.&amp;nbsp;&amp;nbsp;" style="shape=parallelogram;perimeter=parallelogramPerimeter;whiteSpace=wrap;html=1;fixedSize=1;" vertex="1" parent="1">
          <mxGeometry x="205" y="1310" width="410" height="130" as="geometry" />
        </mxCell>
        <mxCell id="P4wCreTXdjl9jV78y_dl-29" value="End program after the max amount of years inputted is met." style="ellipse;whiteSpace=wrap;html=1;" vertex="1" parent="1">
          <mxGeometry x="325" y="1560" width="170" height="80" as="geometry" />
        </mxCell>
      </root>
    </mxGraphModel>
  </diagram>
</mxfile>
